<svg width="45" height="45" viewBox="0 0 45 45" fill="none" xmlns="http://www.w3.org/2000/svg">
<path d="M24.813 0.0027683C26.4548 -0.00353199 28.0967 0.0129692 29.738 0.0522668L30.1745 0.0680162C30.6785 0.0860156 31.1757 0.108515 31.7764 0.135514C34.1703 0.24801 35.8037 0.625998 37.2369 1.18173C38.7218 1.75321 39.9728 2.52718 41.2237 3.77814C42.3675 4.90222 43.2527 6.26194 43.8178 7.76275C44.3735 9.19596 44.7515 10.8316 44.864 13.2256C44.891 13.824 44.9135 14.3235 44.9315 14.8275L44.945 15.264C44.985 16.9046 45.0022 18.5457 44.9967 20.1868L44.999 21.8653V24.8127C45.0045 26.4545 44.9873 28.0964 44.9472 29.7378L44.9337 30.1742C44.9157 30.6782 44.8932 31.1755 44.8662 31.7762C44.7538 34.1701 44.3713 35.8036 43.8178 37.2368C43.2545 38.7392 42.3691 40.1 41.2237 41.2236C40.0987 42.3673 38.7383 43.2525 37.2369 43.8178C35.8037 44.3735 34.1703 44.7515 31.7764 44.864C31.1757 44.891 30.6785 44.9135 30.1745 44.9315L29.738 44.945C28.0967 44.985 26.4549 45.0022 24.813 44.9967L23.1346 44.999H20.1895C18.5477 45.0045 16.9059 44.9873 15.2645 44.9472L14.828 44.9337C14.2939 44.9144 13.76 44.8919 13.2261 44.8662C10.8322 44.7537 9.19883 44.3713 7.7634 43.8178C6.26202 43.2538 4.90208 42.3684 3.77885 41.2236C2.63376 40.0993 1.74771 38.7387 1.18249 37.2368C0.626766 35.8036 0.248785 34.1701 0.136291 31.7762C0.111234 31.2423 0.0887349 30.7083 0.0687947 30.1742L0.0575455 29.7378C0.0160657 28.0964 -0.00268534 26.4545 0.00129819 24.8127V20.1868C-0.00498117 18.5457 0.0115197 16.9046 0.0507958 15.264L0.0665449 14.8275C0.084544 14.3235 0.107043 13.824 0.134041 13.2256C0.246536 10.8294 0.624516 9.1982 1.18024 7.76275C1.7458 6.2612 2.63358 4.90185 3.7811 3.78039C4.90356 2.63462 6.26264 1.74775 7.7634 1.18173C9.19883 0.625998 10.83 0.24801 13.2261 0.135514L14.828 0.0680162L15.2645 0.0567668C16.9051 0.0153071 18.5462 -0.0034443 20.1873 0.000518535L24.813 0.0027683ZM22.5001 11.2524C21.0096 11.2313 19.5297 11.5067 18.1466 12.0625C16.7634 12.6183 15.5045 13.4435 14.443 14.4901C13.3815 15.5368 12.5386 16.7839 11.9632 18.1591C11.3879 19.5343 11.0916 21.0102 11.0916 22.5009C11.0916 23.9916 11.3879 25.4674 11.9632 26.8426C12.5386 28.2178 13.3815 29.465 14.443 30.5116C15.5045 31.5582 16.7634 32.3834 18.1466 32.9392C19.5297 33.4951 21.0096 33.7705 22.5001 33.7494C25.4837 33.7494 28.345 32.5641 30.4547 30.4544C32.5644 28.3447 33.7496 25.4833 33.7496 22.4998C33.7496 19.5162 32.5644 16.6548 30.4547 14.5451C28.345 12.4354 25.4837 11.2524 22.5001 11.2524ZM22.5001 15.7522C23.3967 15.7357 24.2876 15.898 25.1208 16.2297C25.954 16.5613 26.7127 17.0557 27.3526 17.6839C27.9926 18.3121 28.501 19.0615 28.8481 19.8884C29.1952 20.7152 29.374 21.603 29.3741 22.4997C29.3743 23.3965 29.1957 24.2843 28.8489 25.1113C28.5021 25.9383 27.994 26.6878 27.3543 27.3162C26.7145 27.9446 25.9559 28.4393 25.1229 28.7712C24.2898 29.1031 23.399 29.2657 22.5024 29.2495C20.7123 29.2495 18.9955 28.5384 17.7297 27.2726C16.4639 26.0067 15.7527 24.2899 15.7527 22.4998C15.7527 20.7096 16.4639 18.9928 17.7297 17.7269C18.9955 16.4611 20.7123 15.75 22.5024 15.75L22.5001 15.7522ZM34.312 7.8775C33.5862 7.90655 32.8998 8.21533 32.3965 8.73916C31.8932 9.26299 31.6122 9.96123 31.6122 10.6877C31.6122 11.4141 31.8932 12.1123 32.3965 12.6362C32.8998 13.16 33.5862 13.4688 34.312 13.4978C35.0579 13.4978 35.7733 13.2015 36.3007 12.6741C36.8281 12.1466 37.1244 11.4313 37.1244 10.6854C37.1244 9.93951 36.8281 9.22416 36.3007 8.69674C35.7733 8.16931 35.0579 7.873 34.312 7.873V7.8775Z" fill="#5EEAD4"/>
</svg>
