<svg width="45" height="40" viewBox="0 0 45 40" fill="none" xmlns="http://www.w3.org/2000/svg">
<path d="M14.1356 40C31.1175 40 40.4072 24.607 40.4072 11.2815C40.4072 10.8508 40.4072 10.4139 40.3903 9.98314C42.1989 8.55086 43.7599 6.77762 45 4.7465C43.3106 5.56138 41.5203 6.09844 39.6872 6.34026C41.6181 5.07767 43.0642 3.0911 43.7569 0.749785C41.9428 1.92549 39.9572 2.75083 37.8872 3.18965C36.4955 1.56828 34.6539 0.494161 32.6477 0.133687C30.6415 -0.226787 28.5827 0.146499 26.79 1.19572C24.9974 2.24495 23.571 3.91155 22.7319 5.93739C21.8928 7.96322 21.6877 10.2352 22.1484 12.4015C18.4774 12.2001 14.886 11.1568 11.6073 9.3393C8.32857 7.52179 5.43567 4.97062 3.11625 1.85126C1.93877 4.07602 1.57943 6.70762 2.11119 9.21169C2.64296 11.7158 4.02597 13.9046 5.97937 15.3336C4.51558 15.2792 3.08396 14.8492 1.8 14.0783V14.2168C1.80252 16.5473 2.54055 18.8055 3.88933 20.6095C5.23811 22.4136 7.11492 23.6528 9.2025 24.1178C8.41011 24.3566 7.59158 24.4756 6.76969 24.4716C6.19027 24.4735 5.61201 24.4148 5.04281 24.2962C5.63284 26.3024 6.78171 28.0565 8.32851 29.3128C9.87531 30.5691 11.7426 31.2646 13.6688 31.302C10.3966 34.1135 6.35457 35.6384 2.19375 35.631C1.46059 35.6344 0.72794 35.5882 0 35.4925C4.22301 38.4378 9.1274 40.0017 14.1356 40Z" fill="#5EEAD4"/>
</svg>
